<svg xmlns="http://www.w3.org/2000/svg" width="38" height="38" viewBox="0 0 38 38">
  <g id="Date" transform="translate(-665 -751)">
    <circle id="Ellipse_13" data-name="Ellipse 13" cx="19" cy="19" r="19" transform="translate(665 751)" fill="#fff"/>
    <path id="ic_event_available_24px" d="M16.53,11.06,15.47,10l-4.88,4.88L8.47,12.76,7.41,13.82,10.59,17l5.94-5.94ZM19,3H18V1H16V3H8V1H6V3H5A1.991,1.991,0,0,0,3.01,5L3,19a2,2,0,0,0,2,2H19a2.006,2.006,0,0,0,2-2V5A2.006,2.006,0,0,0,19,3Zm0,16H5V8H19Z" transform="translate(672 759)" fill="#f19f22"/>
  </g>
</svg>
