<svg xmlns="http://www.w3.org/2000/svg" width="80" height="80" viewBox="0 0 80 80">
  <g id="Instagram" transform="translate(-0.29)">
    <g id="instagram-2" data-name="instagram" transform="translate(22.32 23.093)">
      <path id="Path_2" data-name="Path 2" d="M222.851,216.925A5.925,5.925,0,1,1,216.926,211,5.926,5.926,0,0,1,222.851,216.925Zm0,0" transform="translate(-199.017 -199.018)" fill="#fff"/>
      <path id="Path_3" data-name="Path 3" d="M147.916,120H127.9a7.909,7.909,0,0,0-7.9,7.9v20.015a7.909,7.909,0,0,0,7.9,7.9h20.015a7.909,7.909,0,0,0,7.9-7.9V127.9A7.909,7.909,0,0,0,147.916,120Zm-10.007,27.784a9.876,9.876,0,1,1,9.876-9.876A9.887,9.887,0,0,1,137.908,147.784Zm11.324-19.225a1.975,1.975,0,1,1,1.975-1.975A1.975,1.975,0,0,1,149.232,128.559Zm0,0" transform="translate(-120 -120)" fill="#fff"/>
    </g>
    <g id="Ellipse_12" data-name="Ellipse 12" transform="translate(0.29)" fill="none" stroke="#fff" stroke-width="2">
      <circle cx="40" cy="40" r="40" stroke="none"/>
      <circle cx="40" cy="40" r="39.5" fill="none"/>
    </g>
  </g>
</svg>
