<svg id="LinkedIn" xmlns="http://www.w3.org/2000/svg" width="80" height="80" viewBox="0 0 80 80">
  <g id="linked-in-logo-of-two-letters" transform="translate(22 24)">
    <g id="Group_8" data-name="Group 8">
      <path id="Path_5" data-name="Path 5" d="M1.169,201.637H5.847a1.169,1.169,0,0,0,1.169-1.169v-20.45a1.169,1.169,0,0,0-1.169-1.169H1.169A1.168,1.168,0,0,0,0,180.019v20.45A1.169,1.169,0,0,0,1.169,201.637Z" transform="translate(0 -168.763)" fill="#fff"/>
      <path id="Path_6" data-name="Path 6" d="M1.169,30.408H5.847a1.169,1.169,0,0,0,1.169-1.169V25.085a1.169,1.169,0,0,0-1.169-1.169H1.169A1.169,1.169,0,0,0,0,25.085v4.155A1.169,1.169,0,0,0,1.169,30.408Z" transform="translate(0 -23.916)" fill="#fff"/>
      <path id="Path_7" data-name="Path 7" d="M203.953,172.616a7.114,7.114,0,0,0-2.909-2.135,10.531,10.531,0,0,0-4.245-.836,10.4,10.4,0,0,0-7.988,3.6c-.434.477-.75.373-.75-.273v-1.558a1.169,1.169,0,0,0-1.169-1.169h-4.179a1.169,1.169,0,0,0-1.169,1.169v20.45a1.169,1.169,0,0,0,1.169,1.169h4.679a1.169,1.169,0,0,0,1.169-1.169v-7.112a22.881,22.881,0,0,1,.537-6.092,5.031,5.031,0,0,1,1.985-2.646,5.626,5.626,0,0,1,3.271-1,4.174,4.174,0,0,1,2.434.7,3.9,3.9,0,0,1,1.461,1.96,20.907,20.907,0,0,1,.449,5.555v8.635a1.169,1.169,0,0,0,1.169,1.169h4.678a1.169,1.169,0,0,0,1.169-1.169V180.282a21.93,21.93,0,0,0-.387-4.719A7.728,7.728,0,0,0,203.953,172.616Z" transform="translate(-169.725 -160.157)" fill="#fff"/>
    </g>
  </g>
  <g id="Ellipse_8" data-name="Ellipse 8" fill="none" stroke="#fff" stroke-width="2">
    <circle cx="40" cy="40" r="40" stroke="none"/>
    <circle cx="40" cy="40" r="39.5" fill="none"/>
  </g>
</svg>
