<svg xmlns="http://www.w3.org/2000/svg" width="80" height="80" viewBox="0 0 80 80">
  <g id="Twitter" transform="translate(-0.234)">
    <g id="twitter-2" data-name="twitter" transform="translate(20.234 24)">
      <g id="Group_9" data-name="Group 9">
        <path id="Path_8" data-name="Path 8" d="M40.051,51.852a17.119,17.119,0,0,1-4.731,1.3,8.165,8.165,0,0,0,3.612-4.538A16.409,16.409,0,0,1,33.726,50.6a8.21,8.21,0,0,0-14.2,5.615,8.455,8.455,0,0,0,.19,1.872A23.241,23.241,0,0,1,2.789,49.5,8.213,8.213,0,0,0,5.312,60.471,8.109,8.109,0,0,1,1.6,59.46v.09A8.249,8.249,0,0,0,8.18,67.617a8.2,8.2,0,0,1-2.153.27,7.26,7.26,0,0,1-1.554-.14,8.289,8.289,0,0,0,7.672,5.72,16.5,16.5,0,0,1-10.181,3.5A15.378,15.378,0,0,1,0,76.857a23.116,23.116,0,0,0,12.6,3.685c15.109,0,23.37-12.516,23.37-23.365,0-.363-.013-.713-.03-1.061A16.38,16.38,0,0,0,40.051,51.852Z" transform="translate(0 -48)" fill="#fff"/>
      </g>
    </g>
    <g id="Ellipse_9" data-name="Ellipse 9" transform="translate(0.234)" fill="none" stroke="#fff" stroke-width="2">
      <circle cx="40" cy="40" r="40" stroke="none"/>
      <circle cx="40" cy="40" r="39.5" fill="none"/>
    </g>
  </g>
</svg>
