<svg xmlns="http://www.w3.org/2000/svg" width="80" height="80" viewBox="0 0 80 80">
  <g id="YouTube" transform="translate(0.237)">
    <path id="youtube-2" data-name="youtube" d="M43.365,7.988l.055.362a5.622,5.622,0,0,0-3.821-3.9l-.039-.009C36.1,3.5,22.191,3.5,22.191,3.5S8.315,3.482,4.823,4.439A5.624,5.624,0,0,0,.974,8.311L.965,8.35a61.812,61.812,0,0,0,.057,22.075l-.057-.366a5.622,5.622,0,0,0,3.821,3.9l.039.009c3.453.94,17.369.94,17.369.94s13.875,0,17.369-.94A5.623,5.623,0,0,0,43.413,30.1l.009-.039a57.768,57.768,0,0,0,.924-10.436c0-.135,0-.272,0-.408s0-.275,0-.425a59.6,59.6,0,0,0-.981-10.8ZM17.753,25.951V12.476l11.578,6.748Z" transform="translate(17.771 21.5)" fill="#fff"/>
    <g id="Ellipse_10" data-name="Ellipse 10" transform="translate(-0.237)" fill="none" stroke="#fff" stroke-width="2">
      <circle cx="40" cy="40" r="40" stroke="none"/>
      <circle cx="40" cy="40" r="39.5" fill="none"/>
    </g>
  </g>
</svg>
